<?xml version="1.0" encoding="UTF-8" standalone="no"?>
<!-- Created with Inkscape (http://www.inkscape.org/) -->

<svg
   xmlns:dc="http://purl.org/dc/elements/1.1/"
   xmlns:cc="http://creativecommons.org/ns#"
   xmlns:rdf="http://www.w3.org/1999/02/22-rdf-syntax-ns#"
   xmlns:svg="http://www.w3.org/2000/svg"
   xmlns="http://www.w3.org/2000/svg"
   xmlns:sodipodi="http://sodipodi.sourceforge.net/DTD/sodipodi-0.dtd"
   xmlns:inkscape="http://www.inkscape.org/namespaces/inkscape"
   width="150"
   height="150"
   viewBox="0 0 39.687498 39.6875"
   version="1.1"
   id="svg8"
   inkscape:version="0.92.3 (2405546, 2018-03-11)"
   sodipodi:docname="sitepipe.svg"
   inkscape:export-filename="C:\Users\j.long\Desktop\sitepipe-24.png"
   inkscape:export-xdpi="15.36"
   inkscape:export-ydpi="15.36">
  <defs
     id="defs2" />
  <sodipodi:namedview
     id="base"
     pagecolor="#ffffff"
     bordercolor="#666666"
     borderopacity="1.0"
     inkscape:pageopacity="0.0"
     inkscape:pageshadow="2"
     inkscape:zoom="3.959798"
     inkscape:cx="47.569999"
     inkscape:cy="41.83581"
     inkscape:document-units="mm"
     inkscape:current-layer="layer1"
     showgrid="false"
     units="px"
     inkscape:window-width="1920"
     inkscape:window-height="1017"
     inkscape:window-x="1912"
     inkscape:window-y="-8"
     inkscape:window-maximized="1"
     fit-margin-top="0"
     fit-margin-left="0"
     fit-margin-right="0"
     fit-margin-bottom="0" />
  <metadata
     id="metadata5">
    <rdf:RDF>
      <cc:Work
         rdf:about="">
        <dc:format>image/svg+xml</dc:format>
        <dc:type
           rdf:resource="http://purl.org/dc/dcmitype/StillImage" />
        <dc:title></dc:title>
      </cc:Work>
    </rdf:RDF>
  </metadata>
  <g
     inkscape:label="Layer 1"
     inkscape:groupmode="layer"
     id="layer1"
     transform="translate(-2.2271475,-253.75576)">
    <path
       style="fill:#000000;stroke-width:0.08466666"
       d="m 30.992527,291.06856 c -0.15462,-0.0762 -0.38322,-0.27233 -0.508,-0.43586 l -0.22687,-0.29731 -0.0243,-2.94889 -0.0243,-2.94889 h -1.34096 -1.34095 l -0.0536,0.2681 c -0.073,0.365 -0.40517,0.77988 -0.75873,0.94765 -0.25953,0.12316 -0.78453,0.13892 -4.62749,0.13892 -4.82572,0 -4.69716,0.0144 -5.14828,-0.5766 l -0.22805,-0.29876 -0.0256,-1.93299 -0.0256,-1.93298 H 12.469372 8.2789482 l -0.207819,-0.20782 -0.207818,-0.20782 v -6.89976 -6.89975 l -1.932986,-0.0256 -1.932986,-0.0256 -0.298766,-0.22805 c -0.599276,-0.45744 -0.583678,-0.31039 -0.55762,-5.25702 l 0.02336,-4.43424 0.228054,-0.29893 c 0.451006,-0.59117 0.322386,-0.57676 5.148279,-0.57676 4.8258478,0 4.6972418,-0.0144 5.1482788,0.57672 l 0.228054,0.29888 0.02401,3.28754 0.02401,3.28753 h 1.342268 1.34227 l 0.0328,-0.58084 c 0.0264,-0.46802 0.0767,-0.63839 0.25877,-0.87709 0.44857,-0.5881 0.32285,-0.57407 5.14618,-0.57407 4.82597,0 4.69732,-0.0144 5.14828,0.57682 l 0.22806,0.299 v 4.54285 4.54284 l -0.22806,0.299 c -0.45096,0.59124 -0.32231,0.57682 -5.14828,0.57682 -4.82584,0 -4.69724,0.0144 -5.14828,-0.57671 l -0.22805,-0.29889 -0.024,-3.28753 -0.024,-3.28753 h -1.34226 -1.342273 l -0.03282,0.58084 c -0.02644,0.46801 -0.07671,0.63839 -0.258775,0.87708 -0.407452,0.5342 -0.590836,0.57408 -2.640141,0.57408 H 9.2179832 v 6.43466 6.43467 h 3.7209078 3.720916 l 0.0256,-1.93299 0.0256,-1.93298 0.22805,-0.29877 c 0.45112,-0.59099 0.32256,-0.57659 5.14828,-0.57659 4.82587,0 4.69726,-0.0144 5.14828,0.57673 l 0.22806,0.29889 0.0238,3.62619 0.0238,3.62619 h 1.34456 1.34457 l 0.0287,-0.91707 c 0.0263,-0.84277 0.0471,-0.94127 0.2567,-1.21576 0.45118,-0.5909 0.32265,-0.57651 5.14828,-0.57651 4.82596,0 4.69733,-0.0144 5.14828,0.57683 l 0.22805,0.29899 v 4.54285 4.54285 l -0.22805,0.29899 c -0.45125,0.59162 -0.32036,0.57704 -5.16107,0.5749 -3.85181,-0.002 -4.37959,-0.0177 -4.62866,-0.14046 z m 5.41816,-1.33498 c 1.48014,-0.3137 2.55899,-1.26484 3.03516,-2.67587 0.15419,-0.4569 0.17924,-0.69151 0.15383,-1.44083 -0.0284,-0.83712 -0.0513,-0.93751 -0.35436,-1.55067 -0.53006,-1.0725 -1.4485,-1.84445 -2.54031,-2.13516 -0.55889,-0.14881 -1.58315,-0.14881 -2.14204,0 -1.90425,0.50703 -3.18074,2.44521 -2.90284,4.40758 0.24447,1.72623 1.44056,3.01911 3.13254,3.38601 0.70461,0.15279 0.93335,0.15405 1.61802,0.009 z m -1.76731,-0.96129 c -1.9977,-0.71296 -2.74488,-2.95422 -1.5766,-4.72921 0.33518,-0.50924 0.68794,-0.79767 1.36194,-1.11355 0.40768,-0.19107 0.60108,-0.22758 1.20527,-0.22758 0.6035,0 0.79774,0.0366 1.20334,0.2267 0.94621,0.4435 1.52893,1.10631 1.80376,2.0517 0.41376,1.42329 -0.33991,3.03849 -1.71094,3.66677 -0.65474,0.30003 -1.64493,0.35423 -2.28677,0.12517 z m 2.60579,-1.02617 c 0.18983,-0.18983 0.24749,-0.32524 0.24749,-0.58124 0,-0.63977 -0.53181,-0.99843 -1.11754,-0.7537 -0.27478,0.11481 -0.31905,0.10603 -0.93633,-0.1857 -0.35636,-0.16841 -0.64897,-0.32525 -0.65026,-0.34854 -10e-4,-0.0233 0.30359,-0.20264 0.6775,-0.39857 0.56446,-0.29576 0.71605,-0.34247 0.89309,-0.27516 0.34969,0.13295 0.59747,0.0937 0.87304,-0.13812 0.2161,-0.18184 0.2605,-0.2809 0.2605,-0.58125 0,-0.64458 -0.46969,-1.0025 -1.05993,-0.8077 -0.30092,0.0993 -0.54874,0.39936 -0.54874,0.66439 0,0.11772 -0.18193,0.25634 -0.65617,0.49996 -0.62883,0.32304 -0.66798,0.33209 -0.9399,0.21736 -0.34376,-0.14505 -0.78742,-0.0318 -0.986,0.25175 -0.21729,0.31022 -0.16301,0.79862 0.12022,1.08186 0.25451,0.2545 0.67499,0.33089 0.93064,0.16906 0.16214,-0.10262 1.53121,0.57313 1.53121,0.75579 0,0.19053 0.24295,0.50836 0.45356,0.59335 0.35833,0.1446 0.65248,0.0916 0.90762,-0.16354 z m -13.8796,-3.30547 c 1.80102,-0.55661 2.95109,-2.14157 2.95109,-4.06704 0,-2.4335 -1.79983,-4.23333 -4.23334,-4.23333 -2.4335,0 -4.23333,1.79983 -4.23333,4.23333 0,1.92353 1.13438,3.49055 2.94621,4.06986 0.6769,0.21643 1.86415,0.21513 2.56937,-0.003 z m -1.87491,-0.43753 c -1.94295,-0.32469 -3.343,-2.24022 -3.03956,-4.15867 0.31536,-1.99387 2.23519,-3.43283 4.14926,-3.10998 1.62756,0.27452 2.86157,1.50647 3.11519,3.10998 0.37962,2.40014 -1.81589,4.56125 -4.22489,4.15867 z m 1.92329,-0.88722 c 0.69551,-0.29607 0.87059,-0.40364 0.86767,-0.53312 -0.002,-0.0742 -0.18411,-0.43963 -0.40542,-0.81217 -0.47925,-0.80674 -0.6253,-0.86559 -1.06269,-0.42821 -0.16566,0.16567 -0.37735,0.30121 -0.47042,0.30121 -0.4315,0 -1.18833,-1.05125 -1.19027,-1.65333 -0.001,-0.31587 0.2137,-0.6425 0.38034,-0.57856 0.11623,0.0446 0.7195,-0.26667 0.7195,-0.37125 0,-0.12776 -0.81795,-1.48762 -0.91787,-1.52597 -0.15364,-0.059 -0.6908,0.20494 -0.6908,0.33941 0,0.0592 -0.11517,0.15868 -0.25594,0.22099 -0.66172,0.29291 -0.66323,1.28484 -0.004,2.69341 0.43806,0.93611 1.21129,1.90736 1.86636,2.34433 0.26571,0.17724 0.75171,0.1786 1.16362,0.003 z m 1.71737,-14.82757 v -2.68729 l -1.45959,-1.46138 -1.45959,-1.46138 h -1.58841 -1.58841 v 4.14867 4.14866 h 3.048 3.048 z m -5.67266,-1.46138 v -3.72534 h 1.143 1.143 v 1.35467 1.35467 h 1.48166 1.48167 v 2.37066 2.37067 h -2.62467 -2.62466 z m 2.794,-2.47518 v -1.03584 l 1.016,1.01335 c 0.5588,0.55734 1.016,1.02347 1.016,1.03584 0,0.0124 -0.4572,0.0225 -1.016,0.0225 h -1.016 z M 7.7786552,263.44028 v -1.43933 h 0.762 0.762 v 1.43933 1.43933 h 1.0159998 1.016 l -0.0027,-1.50283 -0.0027,-1.50283 -1.237618,-1.016 c -1.6184068,-1.3286 -1.5165908,-1.26146 -1.7084628,-1.12664 -0.0866,0.0609 -0.71432,0.56784 -1.394941,1.12664 l -1.237492,1.016 -0.0021,1.50283 -0.0021,1.50283 h 1.016 1.016 z m -1.079539,-2.87954 1.84146,-1.52145 1.7992068,1.48834 c 0.989563,0.81858 1.845567,1.5076 1.902233,1.53114 0.123096,0.0511 0.52749,-0.38506 0.524567,-0.56582 -0.0011,-0.0699 -0.426005,-0.4699 -0.944165,-0.889 -0.51816,-0.4191 -1.078007,-0.87851 -1.244103,-1.0209 -0.166096,-0.14239 -0.6925183,-0.57532 -1.1698268,-0.96205 l -0.867833,-0.70316 -0.867834,0.70316 c -0.477308,0.38673 -1.00373,0.81966 -1.169826,0.96205 -0.166096,0.14239 -0.725943,0.6018 -1.244104,1.0209 -0.51816,0.4191 -0.944239,0.81312 -0.94684,0.87561 -0.0058,0.13973 0.344572,0.59557 0.460937,0.59965 0.04657,0.002 0.913324,-0.68168 1.926128,-1.51847 z"
       id="path3724"
       inkscape:connector-curvature="0" />
  </g>
</svg>
